<svg xmlns="http://www.w3.org/2000/svg" width="313" height="335" fill="none" viewBox="0 0 313 335"><path fill="#171e1e" stroke="#fff" stroke-linejoin="round" stroke-width="7.582" d="M102.614 38.206c12.184-5.218 23.806-7.982 31.265-8.534 7.313-.541 20.426-.17 34.323 3.4 13.883 3.566 28.925 10.423 39.595 23.15 5.378 6.417 7.884 12.36 10.289 18.025 1.98 4.665 3.887 9.135 7.269 14.064 5.225 7.613 12.51 15.886 18.565 22.32a338 338 0 0 0 7.62 7.833 277 277 0 0 0 2.266 2.226l.607.586.155.147.037.037.009.008.001.002a3.79 3.79 0 0 1 .485 4.918l-6.378 9.157a115 115 0 0 1 1.53 2.438 125 125 0 0 1 6.273 11.618c4.321 9.166 8.66 21.572 6.829 32.462-1.424 8.464-3.646 14.946-7.602 20.342-3.282 4.476-7.583 7.962-13.055 11.235l2.817 4.667 34.715 4.244a3.75 3.75 0 0 1 3.077 2.453 3.82 3.82 0 0 1-.788 3.879l-1.209 1.31-.006.007-.026.028-.006.007-.073.078-.005.005-.107.114-.196.207c-.262.278-.645.678-1.138 1.184a174 174 0 0 1-4.221 4.176c-3.599 3.446-8.7 8.064-14.702 12.742-11.753 9.161-27.909 19.315-43.322 20.175-6.949.388-13.376.625-19.311.813l-5.773.176-.116.004v-.001l-3.992.122c-8.55.265-15.823.556-22.182 1.264-12.635 1.405-20.973 4.381-27.668 11.41-3.694 3.878-6.844 7.971-9.884 12.01l-.864 1.15c-2.681 3.57-5.381 7.171-8.222 10.224-3.162 3.398-6.78 6.433-11.242 8.16-4.567 1.766-9.596 1.999-15.269.5-3.976-1.05-7.272-3.013-9.26-6.206-1.976-3.173-2.176-6.785-1.585-10.13l.116-.606c1.295-6.289 5.561-13.323 10.362-19.832 7.595-10.296 17.82-20.932 24.6-27.991l.002-.003a776 776 0 0 0 3.296-3.447l-6.84-14.999a4 4 0 0 1-.09-.215l-1.262-3.29a4 4 0 0 1-.176-.611c-.185-.92-.231-1.264-.382-1.975-.12-.566-.233-.962-.356-1.267-.172-.422-.351-.675-.78-.908-2.897-1.01-15.87-6.026-29.98-14.297-14.522-8.513-31.02-20.911-38.371-36.527-4.45-9.453-7.19-17.738-8.327-26.354-1.136-8.613-.644-17.352 1.127-27.677 4.349-25.36 15.109-38.107 32.12-56.312 10.141-10.853 23.21-18.669 35.416-23.895Z"/><path fill="#fff" d="M217.566 224.418a61 61 0 0 1 2.35 1.889c2.821 2.389 5.337 5.015 6.705 7.581 1.355 2.54 1.514 4.849-.023 6.88-1.582 2.091-3.368 3.091-5.451 3.836-.893.319-1.824.585-2.831.874l-.585.167c-1.223.353-2.533.748-3.91 1.296-1.032.41-13.446 2.788-13.446 2.788s-34.108 7.973-48.316-4.314c-5.057-4.374-10.287-13.645-10.287-13.645-1.855-3.836-3.482-9.089-4.651-13.421a158 158 0 0 1-1.269-5.035c2.959-.309 5.364.823 8.06 2.091 1.357.638 2.787 1.31 4.398 1.851 5.326 1.789 9.436 4.288 13.367 6.678v.001c5.757 3.5 11.13 6.767 19.376 7.226 12.336.688 24.599-2.177 36.513-6.743"/><path fill="#fff" fill-rule="evenodd" d="M144.246 193.769s26.601 24.022 57.917 13.143c31.315-10.879 35.748-12.735 40.213-21.383s-10.956-40.101-10.956-40.101l-10.35-.396 18.16-18.283s-23.24-19.867-30.398-24.414c-6.641-4.217-6.642-6.978-6.647-13.26q0-.734-.004-1.536c-.049-7.396-16.324-17.138-16.324-17.138s-65.773 33.303-66.329 36.157c-.557 2.854 5.804 8.438 5.804 8.438s-3.555 1.425-3.869 6.096 19.88 50.876 19.88 50.876-3.99 5.188-12.865 1.808c-3.909-1.488-6.683-4.484-9.491-7.516-3.568-3.852-7.191-7.763-13.265-8.718l-.439-.069c-6.935-1.093-12.564-1.98-17.94 2.652-7.489 6.454-5.084 16.475-.409 25.042 5.138 9.416 13.478 11.865 24.231 13.251 7.886 1.016 12.904.355 20.216-2.841 4.016-1.756 9.503-5.963 9.503-5.963zm16.035-69.705-6.723-8.309s6.716-9.761 14.291-12.187c6.554-2.099 15.864-.379 15.864-.379l.725 5.45s-6.931.647-10.906 2.458c-6.601 3.008-13.251 12.967-13.251 12.967m59.828 41.56c-8.028 2.979-14.702 2.067-14.702 2.067s-2.598 3.403-2.95 5.966c-.293 2.133.726 5.45.726 5.45s17.763-.169 21.933-4.007c5.054-4.654 9.019-9.596 9.019-9.596l-1.645-5.321s-8.286 3.922-12.381 5.441m-31.753-31.97c-3.116 4.051-9.264 4.622-13.731 1.275s-5.562-9.345-2.445-13.397c3.116-4.052 9.263-4.623 13.73-1.275 4.467 3.347 5.562 9.345 2.446 13.397" clip-rule="evenodd"/></svg>